<svg width="16" height="16" viewBox="0 0 16 16" fill="none" xmlns="http://www.w3.org/2000/svg">
<path d="M14.7794 4.06878C15.1003 3.74786 15.1003 3.3066 14.7794 2.98568L13.0143 1.26075C12.6934 0.939836 12.2522 0.939836 11.9312 1.26075L10.5673 2.62465L13.4155 5.47279L14.7794 4.06878ZM1.22064 11.8911V14.8195H4.14901L12.5731 6.3152L9.64471 3.38683L1.22064 11.8911Z" fill="currentColor"/>
<path d="M14.7794 12.8138L12.7736 14.8195C12.533 15.0602 12.1719 15.0602 11.9312 14.8195L1.18052 4.02865C0.939828 3.78797 0.939828 3.42693 1.18052 3.18625L3.18625 1.18052C3.42693 0.939828 3.78797 0.939828 4.02865 1.18052L14.8195 11.9713C15.0201 12.212 15.0201 12.5731 14.7794 12.8138Z" stroke="currentColor" stroke-width="0.5" stroke-miterlimit="10" stroke-linecap="round" stroke-linejoin="round"/>
<path d="M4.87104 2.26361L3.6676 3.46705" stroke="currentColor" stroke-width="0.5" stroke-miterlimit="10" stroke-linecap="round" stroke-linejoin="round"/>
<path d="M5.83382 3.22636L5.11176 3.94843" stroke="currentColor" stroke-width="0.5" stroke-miterlimit="10" stroke-linecap="round" stroke-linejoin="round"/>
<path d="M6.79653 4.18912L6.07446 4.91118" stroke="currentColor" stroke-width="0.5" stroke-miterlimit="10" stroke-linecap="round" stroke-linejoin="round"/>
</svg>
