<?xml version="1.0" encoding="UTF-8"?>
<svg width="20px" height="18px" viewBox="0 0 20 18" version="1.1" xmlns="http://www.w3.org/2000/svg" xmlns:xlink="http://www.w3.org/1999/xlink">
    <!-- Generator: Sketch 56.3 (81716) - https://sketch.com -->
    <title>Group 12</title>
    <desc>Created with Sketch.</desc>
    <defs>
        <polygon id="path-1" points="0 0.0304105263 17.9699048 0.0304105263 17.9699048 17.9052158 0 17.9052158"></polygon>
    </defs>
    <g id="Page-1" stroke="none" stroke-width="1" fill="none" fill-rule="evenodd">
        <g id="Artboard" transform="translate(1.000000, 0.000000)">
            <g id="Group-12" transform="translate(-1.000000, 0.000000)">
                <path d="M2.46026667,13.9373053 L2.46026667,17.5890316 L6.13131429,17.5890316 L16.7581714,6.92204211 L13.0871238,3.27031579 L2.46026667,13.9373053 Z M19.5597905,4.13516842 C19.9462667,3.75082105 19.9462667,3.17415789 19.5597905,2.78981053 L17.3378857,0.579410526 C16.9514095,0.195063158 16.3717905,0.195063158 15.9853143,0.579410526 L14.2463619,2.30930526 L17.8501714,5.89405263 L19.5597905,4.13516842 Z" id="Fill-1" fill="#000000"></path>
                <g id="Group-5" transform="translate(2.000000, 0.064326)">
                    <mask id="mask-2" fill="white">
                        <use xlink:href="#path-1"></use>
                    </mask>
                    <g id="Clip-4"></g>
                    <path d="M3.44273333,0.388752632 C3.29511429,0.388752632 3.14749524,0.444647368 3.03501905,0.556531579 L0.529304762,3.04905789 C0.420447619,3.15734211 0.360447619,3.30134211 0.360447619,3.45453158 C0.360447619,3.60772105 0.420447619,3.75172105 0.529304762,3.86000526 L14.1199714,17.3791421 C14.3448286,17.6027211 14.7105429,17.6027211 14.9353048,17.3791421 L17.441019,14.8866158 C17.6658762,14.6630368 17.6658762,14.2991526 17.441019,14.0755737 L3.85044762,0.556531579 C3.73797143,0.444647368 3.59035238,0.388752632 3.44273333,0.388752632 M14.5276857,17.9052158 C14.287781,17.9052158 14.047781,17.8143632 13.8651143,17.6327526 L0.274447619,4.11361579 C0.0974952381,3.9375 -2.85714286e-05,3.7035 -2.85714286e-05,3.45453158 C-2.85714286e-05,3.20556316 0.0974952381,2.97146842 0.274447619,2.79544737 L2.7801619,0.302921053 C3.14549524,-0.0603947368 3.73987619,-0.0604894737 4.10530476,0.302921053 L17.6959714,13.8219632 C18.0613048,14.1854684 18.0613048,14.7767211 17.6959714,15.1401316 L15.1902571,17.6327526 C15.0075905,17.8143632 14.7675905,17.9052158 14.5276857,17.9052158" id="Fill-3" fill="#000000" mask="url(#mask-2)"></path>
                </g>
                <path d="M5.56247619,3.55006421 C5.516,3.55006421 5.46961905,3.53244316 5.43419048,3.49720105 C5.36333333,3.42671684 5.36333333,3.31246421 5.43419048,3.24207474 L6.94085714,1.74324316 C7.01171429,1.67275895 7.12657143,1.67275895 7.19742857,1.74324316 C7.26828571,1.81372737 7.26828571,1.92798 7.19742857,1.99846421 L5.6907619,3.49720105 C5.65533333,3.53244316 5.60895238,3.55006421 5.56247619,3.55006421" id="Fill-6" fill="#000000"></path>
                <path d="M7.35298095,4.16599579 C7.30650476,4.16599579 7.26012381,4.14837474 7.22469524,4.11313263 C7.1538381,4.04264842 7.1538381,3.92839579 7.22469524,3.85800632 L8.14574286,2.94180632 C8.2166,2.87122737 8.3313619,2.87122737 8.40231429,2.94180632 C8.47307619,3.01219579 8.47307619,3.12644842 8.40231429,3.19693263 L7.48126667,4.11313263 C7.4458381,4.14837474 7.39945714,4.16599579 7.35298095,4.16599579" id="Fill-8" fill="#000000"></path>
                <path d="M8.5578,5.36445474 C8.51132381,5.36445474 8.46494286,5.34683368 8.42951429,5.31159158 C8.35865714,5.24110737 8.35865714,5.12685474 8.42951429,5.05646526 L9.3505619,4.14026526 C9.42141905,4.06968632 9.53627619,4.06978105 9.60713333,4.14026526 C9.67789524,4.21074947 9.67789524,4.32500211 9.60713333,4.39539158 L8.68608571,5.31159158 C8.65065714,5.34683368 8.60418095,5.36445474 8.5578,5.36445474" id="Fill-10" fill="#000000"></path>
            </g>
        </g>
    </g>
</svg>