<svg width="24" height="24" xmlns="http://www.w3.org/2000/svg"><path d="M12 2C6.444 2 2 6.444 2 12s4.444 10 10 10c.889 0 1.667-.778 1.667-1.667 0-.444-.111-.777-.445-1.11-.222-.334-.444-.667-.444-1.112 0-.889.778-1.667 1.666-1.667h2C19.556 16.444 22 14 22 10.89 22 6 17.556 2 12 2zM5.889 12c-.889 0-1.667-.778-1.667-1.667S5 8.667 5.89 8.667s1.667.777 1.667 1.666c0 .89-.778 1.667-1.667 1.667zm3.333-4.444c-.889 0-1.666-.778-1.666-1.667s.777-1.667 1.666-1.667c.89 0 1.667.778 1.667 1.667s-.778 1.667-1.667 1.667zm5.556 0c-.89 0-1.667-.778-1.667-1.667s.778-1.667 1.667-1.667S16.444 5 16.444 5.89s-.777 1.667-1.666 1.667zM18.11 12c-.889 0-1.667-.778-1.667-1.667s.778-1.666 1.667-1.666 1.667.777 1.667 1.666c0 .89-.778 1.667-1.667 1.667z" class="main" fill="#0D0D17" fill-rule="nonzero"/></svg>