<?xml version="1.0" encoding="UTF-8"?>
<svg width="34px" height="35px" viewBox="0 0 34 35" version="1.1" xmlns="http://www.w3.org/2000/svg" xmlns:xlink="http://www.w3.org/1999/xlink">
    <!-- Generator: Sketch 56.3 (81716) - https://sketch.com -->
    <title>Group 12</title>
    <desc>Created with Sketch.</desc>
    <defs>
        <polygon id="path-1" points="0 0.0575661376 33.9423619 0.0575661376 33.9423619 34 0 34"></polygon>
    </defs>
    <g id="Atlas" stroke="none" stroke-width="1" fill="none" fill-rule="evenodd">
        <g id="x220%AtlasAssetEditor" transform="translate(-753.000000, -289.000000)">
            <g id="Group-12" transform="translate(753.000000, 289.000000)">
                <path d="M0.868475132,26.4654021 L0.868475132,33.3996032 L7.80267619,33.3996032 L27.8756286,13.1442381 L20.9414275,6.21003704 L0.868475132,26.4654021 Z M33.1675757,7.85229101 C33.8975862,7.12246032 33.8975862,6.02762434 33.1675757,5.29761376 L28.9706444,1.10050265 C28.2406339,0.370492063 27.1457979,0.370492063 26.4157873,1.10050265 L23.1310995,4.38519048 L29.9382952,11.1922063 L33.1675757,7.85229101 Z" id="Fill-1" fill="#000000"></path>
                <g id="Group-5" transform="translate(0.000000, 0.122328)">
                    <mask id="mask-2" fill="white">
                        <use xlink:href="#path-1"></use>
                    </mask>
                    <g id="Clip-4"></g>
                    <path d="M6.50202328,0.73810582 C6.2231873,0.73810582 5.94435132,0.844243386 5.7318963,1.05669841 L0.998880423,5.78971429 C0.574330159,6.21426455 0.574330159,6.9050582 0.998880423,7.32960847 L26.6703196,33.0008677 C27.0948698,33.4255979 27.7856635,33.4255979 28.2102138,33.0008677 L32.9434095,28.2678519 L33.1841079,28.5087302 L32.9434095,28.2678519 C33.3679598,27.8433016 33.3679598,27.1525079 32.9434095,26.7279577 L7.27215026,1.05669841 C7.05987513,0.844243386 6.78085926,0.73810582 6.50202328,0.73810582 M27.4402667,34 C26.9871132,34 26.5337799,33.8274815 26.1887429,33.4824444 L0.517483598,7.81118519 C-0.172590476,7.12111111 -0.172590476,5.99821164 0.517483598,5.30813757 L5.25049947,0.575121693 C5.94057354,-0.114952381 7.06347302,-0.114952381 7.75354709,0.575121693 L33.4248063,26.246381 C34.1148804,26.936455 34.1148804,28.0593545 33.4248063,28.7494286 L28.6917905,33.4824444 C28.3467534,33.8274815 27.8934201,34 27.4402667,34" id="Fill-3" fill="#000000" mask="url(#mask-2)"></path>
                </g>
                <path d="M6.72820423,6.74126455 C6.64041587,6.74126455 6.55280741,6.70780423 6.48588677,6.6408836 C6.3520455,6.50704233 6.3520455,6.29008995 6.48588677,6.15642857 L9.3318127,3.31050265 C9.46565397,3.17666138 9.68260635,3.17666138 9.81644762,3.31050265 C9.95028889,3.44416402 9.95028889,3.6611164 9.81644762,3.79495767 L6.97052169,6.6408836 C6.90360106,6.70780423 6.8158127,6.74126455 6.72820423,6.74126455" id="Fill-6" fill="#000000"></path>
                <path d="M10.1102688,7.91082857 C10.0224804,7.91082857 9.93487196,7.87736825 9.86795132,7.81044762 C9.73411005,7.67660635 9.73411005,7.45965397 9.86795132,7.32599259 L11.6077079,5.58623598 C11.7415492,5.45221481 11.9583217,5.45239471 12.0923429,5.58623598 C12.2260042,5.72007725 12.2260042,5.93702963 12.0923429,6.07069101 L10.3525862,7.81044762 C10.2856656,7.87736825 10.1978772,7.91082857 10.1102688,7.91082857" id="Fill-8" fill="#000000"></path>
                <path d="M12.3860921,10.1866519 C12.2983037,10.1866519 12.2106952,10.1531915 12.1437746,10.0862709 C12.0099333,9.95242963 12.0099333,9.73547725 12.1437746,9.60181587 L13.8835312,7.86205926 C14.0173725,7.7280381 14.234145,7.7280381 14.3681661,7.86205926 C14.5018275,7.99572063 14.5018275,8.21267302 14.3681661,8.34651429 L12.6284095,10.0862709 C12.5614889,10.1531915 12.4738804,10.1866519 12.3860921,10.1866519" id="Fill-10" fill="#000000"></path>
            </g>
        </g>
    </g>
</svg>