<?xml version="1.0" encoding="UTF-8"?>
<svg width="18px" height="18px" viewBox="0 0 18 18" version="1.1" xmlns="http://www.w3.org/2000/svg" xmlns:xlink="http://www.w3.org/1999/xlink">
    <!-- Generator: Sketch 56.3 (81716) - https://sketch.com -->
    <title>Group 45</title>
    <desc>Created with Sketch.</desc>
    <g id="Page-1" stroke="none" stroke-width="1" fill="none" fill-rule="evenodd">
        <g id="&lt;!---Generator:-Adobe-Illustrator-23.0.3,-SVG-Export-Plug-In----&gt;-&lt;svg-version=&quot;1.1&quot;-xmlns=&quot;http://www.w3.org/2000/svg&quot;-xmlns:xlink=&quot;http://www.w3.org/1999/xlink&quot;-x=&quot;0px&quot;-y=&quot;0px&quot;-width=&quot;20.2px&quot;---height=&quot;20.2px&quot;-viewBox=&quot;0-0-20.2-20.2&quot;-style=&quot;enable-background:new-0-0-20.2-20.2;&quot;-xml:space=&quot;preserve&quot;&gt;-&lt;style-type=&quot;text/css&quot;&gt;--.st0{fill:none;}--.st1{fill:#211915;}-&lt;/style&gt;-&lt;defs&gt;-&lt;/defs&gt;-&lt;rect-y=&quot;9.2&quot;-class=&quot;st0&quot;-width=&quot;3.8&quot;-height=&quot;7.2&quot;/&gt;-&lt;rect-x=&quot;1.6&quot;-y=&quot;14.1&quot;-class=&quot;st1&quot;-width=&quot;0.5&quot;-height=&quot;1.9&quot;/&gt;-&lt;rect-x=&quot;1.6&quot;-y=&quot;12.4&quot;-class=&quot;st1&quot;-width=&quot;0.5&quot;-height=&quot;1&quot;/&gt;-&lt;rect-x=&quot;1.6&quot;-y=&quot;9.6&quot;-class=&quot;st1&quot;-width=&quot;0.5&quot;-height=&quot;1.9&quot;/&gt;-&lt;rect-x=&quot;3.8&quot;-y=&quot;5.5&quot;-class=&quot;st0&quot;-width=&quot;7.2&quot;-height=&quot;3.8&quot;/&gt;-&lt;rect-x=&quot;4.2&quot;-y=&quot;7.1&quot;-class=&quot;st1&quot;-width=&quot;1.9&quot;-height=&quot;0.5&quot;/&gt;-&lt;rect-x=&quot;6.9&quot;-y=&quot;7.1&quot;-class=&quot;st1&quot;-width=&quot;1&quot;-height=&quot;0.5&quot;/&gt;-&lt;rect-x=&quot;8.6&quot;-y=&quot;7.1&quot;-class=&quot;st1&quot;-width=&quot;1.9&quot;-height=&quot;0.5&quot;/&gt;-&lt;rect-x=&quot;11&quot;-y=&quot;9.2&quot;-class=&quot;st0&quot;-width=&quot;3.8&quot;-height=&quot;7.2&quot;/&gt;-&lt;rect-x=&quot;12.6&quot;-y=&quot;9.6&quot;-class=&quot;st1&quot;-width=&quot;0.5&quot;-height=&quot;1.9&quot;/&gt;-&lt;rect-x=&quot;12.6&quot;-y=&quot;12.4&quot;-class=&quot;st1&quot;-width=&quot;0.5&quot;-height=&quot;1&quot;/&gt;-&lt;rect-x=&quot;12.6&quot;-y=&quot;14.1&quot;-class=&quot;st1&quot;-width=&quot;0.5&quot;-height=&quot;1.9&quot;/&gt;-&lt;rect-x=&quot;3.8&quot;-y=&quot;16.5&quot;-class=&quot;st0&quot;-width=&quot;7.2&quot;-height=&quot;3.8&quot;/&gt;-&lt;rect-x=&quot;8.6&quot;-y=&quot;18.1&quot;-class=&quot;st1&quot;-width=&quot;1.9&quot;-height=&quot;0.5&quot;/&gt;-&lt;rect-x=&quot;6.9&quot;-y=&quot;18.1&quot;-class=&quot;st1&quot;-width=&quot;1&quot;-height=&quot;0.5&quot;/&gt;-&lt;rect-x=&quot;4.2&quot;-y=&quot;18.1&quot;-class=&quot;st1&quot;-width=&quot;1.9&quot;-height=&quot;0.5&quot;/&gt;-&lt;polygon-class=&quot;st1&quot;-points=&quot;3.4,7.6-3.4,7.1-1.6,7.1-1.6,8.9-2.1,8.9-2.1,7.6-&quot;/&gt;-&lt;polygon-class=&quot;st1&quot;-points=&quot;12.6,8.9-13.1,8.9-13.1,7.1-11.3,7.1-11.3,7.6-12.6,7.6-&quot;/&gt;-&lt;polygon-class=&quot;st1&quot;-points=&quot;11.3,18.1-11.3,18.6-13.1,18.6-13.1,16.8-12.6,16.8-12.6,18.1-&quot;/&gt;-&lt;polygon-class=&quot;st1&quot;-points=&quot;2.1,16.8-1.6,16.8-1.6,18.6-3.4,18.6-3.4,18.1-2.1,18.1-&quot;/&gt;-&lt;rect-x=&quot;5.5&quot;-y=&quot;3.8&quot;-class=&quot;st0&quot;-width=&quot;3.8&quot;-height=&quot;7.2&quot;/&gt;-&lt;rect-x=&quot;7.1&quot;-y=&quot;8.6&quot;-class=&quot;st1&quot;-width=&quot;0.5&quot;-height=&quot;1.9&quot;/&gt;-&lt;rect-x=&quot;7.1&quot;-y=&quot;6.9&quot;-class=&quot;st1&quot;-width=&quot;0.5&quot;-height=&quot;1&quot;/&gt;-&lt;rect-x=&quot;7.1&quot;-y=&quot;4.2&quot;-class=&quot;st1&quot;-width=&quot;0.5&quot;-height=&quot;1.9&quot;/&gt;-&lt;rect-x=&quot;9.2&quot;-class=&quot;st0&quot;-width=&quot;7.2&quot;-height=&quot;3.8&quot;/&gt;-&lt;rect-x=&quot;9.6&quot;-y=&quot;1.6&quot;-class=&quot;st1&quot;-width=&quot;1.9&quot;-height=&quot;0.5&quot;/&gt;-&lt;rect-x=&quot;12.4&quot;-y=&quot;1.6&quot;-class=&quot;st1&quot;-width=&quot;1&quot;-height=&quot;0.5&quot;/&gt;-&lt;rect-x=&quot;14.1&quot;-y=&quot;1.6&quot;-class=&quot;st1&quot;-width=&quot;1.9&quot;-height=&quot;0.5&quot;/&gt;-&lt;rect-x=&quot;16.5&quot;-y=&quot;3.8&quot;-class=&quot;st0&quot;-width=&quot;3.8&quot;-height=&quot;7.2&quot;/&gt;-&lt;rect-x=&quot;18.1&quot;-y=&quot;4.2&quot;-class=&quot;st1&quot;-width=&quot;0.5&quot;-height=&quot;1.9&quot;/&gt;-&lt;rect-x=&quot;18.1&quot;-y=&quot;6.9&quot;-class=&quot;st1&quot;-width=&quot;0.5&quot;-height=&quot;1&quot;/&gt;-&lt;rect-x=&quot;18.1&quot;-y=&quot;8.6&quot;-class=&quot;st1&quot;-width=&quot;0.5&quot;-height=&quot;1.9&quot;/&gt;-&lt;rect-x=&quot;9.2&quot;-y=&quot;11&quot;-class=&quot;st0&quot;-width=&quot;7.2&quot;-height=&quot;3.8&quot;/&gt;-&lt;rect-x=&quot;14.1&quot;-y=&quot;12.6&quot;-class=&quot;st1&quot;-width=&quot;1.9&quot;-height=&quot;0.5&quot;/&gt;-&lt;rect-x=&quot;12.4&quot;-y=&quot;12.6&quot;-class=&quot;st1&quot;-width=&quot;1&quot;-height=&quot;0.5&quot;/&gt;-&lt;rect-x=&quot;9.6&quot;-y=&quot;12.6&quot;-class=&quot;st1&quot;-width=&quot;1.9&quot;-height=&quot;0.5&quot;/&gt;-&lt;polygon-class=&quot;st1&quot;-points=&quot;8.9,2.1-8.9,1.6-7.1,1.6-7.1,3.4-7.6,3.4-7.6,2.1-&quot;/&gt;-&lt;polygon-class=&quot;st1&quot;-points=&quot;18.1,3.4-18.6,3.4-18.6,1.6-16.8,1.6-16.8,2.1-18.1,2.1-&quot;/&gt;-&lt;polygon-class=&quot;st1&quot;-points=&quot;16.8,12.6-16.8,13.1-18.6,13.1-18.6,11.3-18.1,11.3-18.1,12.6-&quot;/&gt;-&lt;polygon-class=&quot;st1&quot;-points=&quot;7.6,11.3-7.1,11.3-7.1,13.1-8.9,13.1-8.9,12.6-7.6,12.6-&quot;/&gt;-&lt;rect-x=&quot;0.7&quot;-y=&quot;2.7&quot;-transform=&quot;matrix(0.7071--0.7071-0.7071-0.7071--1.9127-4.6128)&quot;-class=&quot;st0&quot;-width=&quot;7.8&quot;-height=&quot;3.8&quot;/&gt;-&lt;rect-x=&quot;1.9&quot;-y=&quot;6.1&quot;-transform=&quot;matrix(0.7071--0.7071-0.7071-0.7071--3.6165-3.9161)&quot;-class=&quot;st1&quot;-width=&quot;2.1&quot;-height=&quot;0.5&quot;/&gt;-&lt;rect-x=&quot;4.1&quot;-y=&quot;4.4&quot;-transform=&quot;matrix(0.7071--0.7071-0.7071-0.7071--1.9177-4.6149)&quot;-class=&quot;st1&quot;-width=&quot;1&quot;-height=&quot;0.5&quot;/&gt;-&lt;rect-x=&quot;5.3&quot;-y=&quot;2.7&quot;-transform=&quot;matrix(0.7071--0.7071-0.7071-0.7071--0.2118-5.3307)&quot;-class=&quot;st1&quot;-width=&quot;2.1&quot;-height=&quot;0.5&quot;/&gt;-&lt;rect-x=&quot;11.7&quot;-y=&quot;2.7&quot;-transform=&quot;matrix(0.7071--0.7071-0.7071-0.7071-1.3073-12.3785)&quot;-class=&quot;st0&quot;-width=&quot;7.8&quot;-height=&quot;3.8&quot;/&gt;-&lt;rect-x=&quot;12.9&quot;-y=&quot;6.1&quot;-transform=&quot;matrix(0.7071--0.7071-0.7071-0.7071--0.4065-11.6776)&quot;-class=&quot;st1&quot;-width=&quot;2.1&quot;-height=&quot;0.5&quot;/&gt;-&lt;rect-x=&quot;15.1&quot;-y=&quot;4.4&quot;-transform=&quot;matrix(0.7071--0.7071-0.7071-0.7071-1.3023-12.3806)&quot;-class=&quot;st1&quot;-width=&quot;1&quot;-height=&quot;0.5&quot;/&gt;-&lt;rect-x=&quot;16.3&quot;-y=&quot;2.7&quot;-transform=&quot;matrix(0.7071--0.7071-0.7071-0.7071-3.0052-13.0894)&quot;-class=&quot;st1&quot;-width=&quot;2.1&quot;-height=&quot;0.5&quot;/&gt;-&lt;rect-x=&quot;11.7&quot;-y=&quot;13.7&quot;-transform=&quot;matrix(0.7071--0.7071-0.7071-0.7071--6.4584-15.5985)&quot;-class=&quot;st0&quot;-width=&quot;7.8&quot;-height=&quot;3.8&quot;/&gt;-&lt;rect-x=&quot;12.9&quot;-y=&quot;17&quot;-transform=&quot;matrix(0.7071--0.7071-0.7071-0.7071--8.1622-14.8876)&quot;-class=&quot;st1&quot;-width=&quot;2.1&quot;-height=&quot;0.5&quot;/&gt;-&lt;rect-x=&quot;15.1&quot;-y=&quot;15.4&quot;-transform=&quot;matrix(0.7071--0.7071-0.7071-0.7071--6.4634-15.6006)&quot;-class=&quot;st1&quot;-width=&quot;1&quot;-height=&quot;0.5&quot;/&gt;-&lt;rect-x=&quot;16.3&quot;-y=&quot;13.6&quot;-transform=&quot;matrix(0.7071--0.7071-0.7071-0.7071--4.7505-16.2994)&quot;-class=&quot;st1&quot;-width=&quot;2.1&quot;-height=&quot;0.5&quot;/&gt;-&lt;rect-x=&quot;0.7&quot;-y=&quot;13.7&quot;-transform=&quot;matrix(0.7071--0.7071-0.7071-0.7071--9.6784-7.8328)&quot;-class=&quot;st0&quot;-width=&quot;7.8&quot;-height=&quot;3.8&quot;/&gt;-&lt;rect-x=&quot;1.9&quot;-y=&quot;17.1&quot;-transform=&quot;matrix(0.7071--0.7071-0.7071-0.7071--11.3822-7.1219)&quot;-class=&quot;st1&quot;-width=&quot;2.1&quot;-height=&quot;0.5&quot;/&gt;-&lt;rect-x=&quot;4.1&quot;-y=&quot;15.4&quot;-transform=&quot;matrix(0.7071--0.7071-0.7071-0.7071--9.6834-7.8349)&quot;-class=&quot;st1&quot;-width=&quot;1&quot;-height=&quot;0.5&quot;/&gt;-&lt;rect-x=&quot;5.3&quot;-y=&quot;13.6&quot;-transform=&quot;matrix(0.7071--0.7071-0.7071-0.7071--7.9675-8.5407)&quot;-class=&quot;st1&quot;-width=&quot;2.1&quot;-height=&quot;0.5&quot;/&gt;-&lt;/svg&gt;-" transform="translate(-167.000000, -131.000000)" fill="#211915">
            <g id="Group-45" transform="translate(167.000000, 131.000000)">
                <polygon id="Fill-1" points="0.62 15.059 1.12 15.059 1.12 13.139 0.62 13.139"></polygon>
                <polygon id="Fill-2" points="0.62 12.331 1.12 12.331 1.12 11.371 0.62 11.371"></polygon>
                <polygon id="Fill-3" points="0.62 10.57 1.12 10.57 1.12 8.649 0.62 8.649"></polygon>
                <polygon id="Fill-4" points="3.15 6.61 5.07 6.61 5.07 6.11 3.15 6.11"></polygon>
                <polygon id="Fill-5" points="5.88 6.61 6.84 6.61 6.84 6.11 5.88 6.11"></polygon>
                <polygon id="Fill-6" points="7.64 6.61 9.56 6.61 9.56 6.11 7.64 6.11"></polygon>
                <polygon id="Fill-7" points="11.6 10.559 12.099 10.559 12.099 8.64 11.6 8.64"></polygon>
                <polygon id="Fill-8" points="11.6 12.331 12.099 12.331 12.099 11.371 11.6 11.371"></polygon>
                <polygon id="Fill-9" points="11.6 15.049 12.099 15.049 12.099 13.129 11.6 13.129"></polygon>
                <polygon id="Fill-10" points="7.65 17.59 9.57 17.59 9.57 17.09 7.65 17.09"></polygon>
                <polygon id="Fill-11" points="5.89 17.59 6.849 17.59 6.849 17.09 5.89 17.09"></polygon>
                <polygon id="Fill-12" points="3.16 17.59 5.081 17.59 5.081 17.09 3.16 17.09"></polygon>
                <polygon id="Fill-13" points="2.4399 6.6099 2.4399 6.1099 0.6199 6.1099 0.6199 7.9199 1.1199 7.9199 1.1199 6.6099"></polygon>
                <polygon id="Fill-14" points="11.6104 7.9302 12.1104 7.9302 12.1104 6.1102 10.2994 6.1102 10.2994 6.6102 11.6104 6.6102"></polygon>
                <polygon id="Fill-15" points="10.29 17.0898 10.29 17.5898 12.11 17.5898 12.11 15.7898 11.6 15.7898 11.6 17.0898"></polygon>
                <polygon id="Fill-16" points="1.1201 15.7803 0.6201 15.7803 0.6201 17.5903 2.4301 17.5903 2.4301 17.0903 1.1201 17.0903"></polygon>
                <polygon id="Fill-17" points="6.11 9.57 6.609 9.57 6.609 7.649 6.11 7.649"></polygon>
                <polygon id="Fill-18" points="6.11 6.85 6.609 6.85 6.609 5.89 6.11 5.89"></polygon>
                <polygon id="Fill-19" points="6.11 5.08 6.609 5.08 6.609 3.16 6.11 3.16"></polygon>
                <polygon id="Fill-20" points="8.64 1.12 10.56 1.12 10.56 0.62 8.64 0.62"></polygon>
                <polygon id="Fill-21" points="11.37 1.12 12.329 1.12 12.329 0.62 11.37 0.62"></polygon>
                <polygon id="Fill-22" points="13.13 1.12 15.05 1.12 15.05 0.62 13.13 0.62"></polygon>
                <polygon id="Fill-23" points="17.09 5.07 17.589 5.07 17.589 3.149 17.09 3.149"></polygon>
                <polygon id="Fill-24" points="17.09 6.84 17.589 6.84 17.589 5.881 17.09 5.881"></polygon>
                <polygon id="Fill-25" points="17.09 9.56 17.589 9.56 17.589 7.639 17.09 7.639"></polygon>
                <polygon id="Fill-26" points="13.14 12.099 15.06 12.099 15.06 11.6 13.14 11.6"></polygon>
                <polygon id="Fill-27" points="11.37 12.099 12.329 12.099 12.329 11.6 11.37 11.6"></polygon>
                <polygon id="Fill-28" points="8.65 12.099 10.571 12.099 10.571 11.6 8.65 11.6"></polygon>
                <polygon id="Fill-29" points="7.9302 1.1201 7.9302 0.6201 6.1102 0.6201 6.1102 2.4301 6.6102 2.4301 6.6102 1.1201"></polygon>
                <polygon id="Fill-30" points="17.0898 2.4399 17.5898 2.4399 17.5898 0.6199 15.7898 0.6199 15.7898 1.1199 17.0898 1.1199"></polygon>
                <polygon id="Fill-31" points="15.7803 11.6104 15.7803 12.1104 17.5903 12.1104 17.5903 10.2994 17.0903 10.2994 17.0903 11.6104"></polygon>
                <polygon id="Fill-32" points="6.6099 10.29 6.1099 10.29 6.1099 12.11 7.9199 12.11 7.9199 11.6 6.6099 11.6"></polygon>
                <polygon id="Fill-33" points="1.0103 5.8784 2.4743 4.4154 2.8273 4.7684 1.3643 6.2324"></polygon>
                <polygon id="Fill-34" points="3.0708 3.8096 3.7998 3.0816 4.1528 3.4346 3.4248 4.1636"></polygon>
                <polygon id="Fill-35" points="4.4204 2.4761 5.8834 1.0131 6.2374 1.3661 4.7744 2.8301"></polygon>
                <polygon id="Fill-36" points="11.9844 5.8848 13.4484 4.4208 13.8014 4.7748 12.3384 6.2388"></polygon>
                <polygon id="Fill-37" points="14.0547 3.8057 14.7837 3.0767 15.1367 3.4307 14.4087 4.1597"></polygon>
                <polygon id="Fill-38" points="15.3945 2.4722 16.8585 1.0082 17.2115 1.3622 15.7485 2.8262"></polygon>
                <polygon id="Fill-39" points="11.9814 16.8516 13.4454 15.3876 13.7984 15.7416 12.3354 17.2056"></polygon>
                <polygon id="Fill-40" points="14.0586 14.79 14.7876 14.061 15.1406 14.415 14.4126 15.144"></polygon>
                <polygon id="Fill-41" points="15.3916 13.4395 16.8546 11.9755 17.2076 12.3295 15.7456 13.7935"></polygon>
                <polygon id="Fill-42" points="0.9971 16.8555 2.4611 15.3915 2.8141 15.7455 1.3511 17.2095"></polygon>
                <polygon id="Fill-43" points="3.0747 14.7939 3.8037 14.0649 4.1567 14.4189 3.4287 15.1479"></polygon>
                <polygon id="Fill-44" points="4.417 13.4434 5.881 11.9794 6.234 12.3334 4.771 13.7974"></polygon>
            </g>
        </g>
    </g>
</svg>