<svg id="Capa_1" data-name="Capa 1" xmlns="http://www.w3.org/2000/svg" viewBox="0 0 20.22 20.22"><defs><style>.cls-1{fill:none;}.cls-2{fill:#211915;}</style></defs><title>exp</title><rect class="cls-1" y="9.24" width="3.75" height="7.23"/><rect class="cls-2" x="1.62" y="14.14" width="0.5" height="1.92"/><rect class="cls-2" x="1.62" y="12.37" width="0.5" height="0.96"/><rect class="cls-2" x="1.62" y="9.65" width="0.5" height="1.92"/><rect class="cls-1" x="3.75" y="5.49" width="7.23" height="3.75"/><rect class="cls-2" x="4.15" y="7.11" width="1.92" height="0.5"/><rect class="cls-2" x="6.88" y="7.11" width="0.96" height="0.5"/><rect class="cls-2" x="8.64" y="7.11" width="1.92" height="0.5"/><rect class="cls-1" x="10.98" y="9.24" width="3.75" height="7.23"/><rect class="cls-2" x="12.6" y="9.64" width="0.5" height="1.92"/><rect class="cls-2" x="12.6" y="12.37" width="0.5" height="0.96"/><rect class="cls-2" x="12.6" y="14.13" width="0.5" height="1.92"/><rect class="cls-1" x="3.75" y="16.47" width="7.23" height="3.75"/><rect class="cls-2" x="8.65" y="18.09" width="1.92" height="0.5"/><rect class="cls-2" x="6.89" y="18.09" width="0.96" height="0.5"/><rect class="cls-2" x="4.16" y="18.09" width="1.92" height="0.5"/><polygon class="cls-2" points="3.44 7.61 3.44 7.11 1.62 7.11 1.62 8.92 2.12 8.92 2.12 7.61 3.44 7.61"/><polygon class="cls-2" points="12.61 8.93 13.11 8.93 13.11 7.11 11.3 7.11 11.3 7.61 12.61 7.61 12.61 8.93"/><polygon class="cls-2" points="11.29 18.09 11.29 18.59 13.11 18.59 13.11 16.79 12.6 16.79 12.6 18.09 11.29 18.09"/><polygon class="cls-2" points="2.12 16.78 1.62 16.78 1.62 18.59 3.43 18.59 3.43 18.09 2.12 18.09 2.12 16.78"/><rect class="cls-1" x="5.49" y="3.75" width="3.75" height="7.23"/><rect class="cls-2" x="7.11" y="8.65" width="0.5" height="1.92"/><rect class="cls-2" x="7.11" y="6.89" width="0.5" height="0.96"/><rect class="cls-2" x="7.11" y="4.16" width="0.5" height="1.92"/><rect class="cls-1" x="9.24" width="7.23" height="3.75"/><rect class="cls-2" x="9.64" y="1.62" width="1.92" height="0.5"/><rect class="cls-2" x="12.37" y="1.62" width="0.96" height="0.5"/><rect class="cls-2" x="14.13" y="1.62" width="1.92" height="0.5"/><rect class="cls-1" x="16.47" y="3.75" width="3.75" height="7.23"/><rect class="cls-2" x="18.09" y="4.15" width="0.5" height="1.92"/><rect class="cls-2" x="18.09" y="6.88" width="0.5" height="0.96"/><rect class="cls-2" x="18.09" y="8.64" width="0.5" height="1.92"/><rect class="cls-1" x="9.24" y="10.98" width="7.23" height="3.75"/><rect class="cls-2" x="14.14" y="12.6" width="1.92" height="0.5"/><rect class="cls-2" x="12.37" y="12.6" width="0.96" height="0.5"/><rect class="cls-2" x="9.65" y="12.6" width="1.92" height="0.5"/><polygon class="cls-2" points="8.93 2.12 8.93 1.62 7.11 1.62 7.11 3.43 7.61 3.43 7.61 2.12 8.93 2.12"/><polygon class="cls-2" points="18.09 3.44 18.59 3.44 18.59 1.62 16.79 1.62 16.79 2.12 18.09 2.12 18.09 3.44"/><polygon class="cls-2" points="16.78 12.61 16.78 13.11 18.59 13.11 18.59 11.3 18.09 11.3 18.09 12.61 16.78 12.61"/><polygon class="cls-2" points="7.61 11.29 7.11 11.29 7.11 13.11 8.92 13.11 8.92 12.6 7.61 12.6 7.61 11.29"/><rect class="cls-1" x="2.63" y="4.6" width="7.76" height="3.75" transform="translate(-4.57 4.64) rotate(-45)"/><rect class="cls-2" x="3.77" y="7.94" width="2.07" height="0.5" transform="translate(-6.27 3.93) rotate(-45)"/><rect class="cls-2" x="5.99" y="6.23" width="1.03" height="0.5" transform="translate(-4.57 4.64) rotate(-45)"/><rect class="cls-2" x="7.18" y="4.53" width="2.07" height="0.5" transform="translate(-2.86 5.35) rotate(-45)"/><rect class="cls-1" x="13.61" y="4.6" width="7.76" height="3.75" transform="translate(-1.35 12.4) rotate(-45)"/><rect class="cls-2" x="14.75" y="7.94" width="2.07" height="0.5" transform="translate(-3.06 11.7) rotate(-45)"/><rect class="cls-2" x="16.97" y="6.23" width="1.03" height="0.5" transform="translate(-1.35 12.4) rotate(-45)"/><rect class="cls-2" x="18.16" y="4.53" width="2.07" height="0.5" transform="translate(0.35 13.11) rotate(-45)"/><rect class="cls-1" x="13.61" y="15.58" width="7.76" height="3.75" transform="translate(-9.11 15.62) rotate(-45)"/><rect class="cls-2" x="14.75" y="18.91" width="2.07" height="0.5" transform="translate(-10.82 14.91) rotate(-45)"/><rect class="cls-2" x="16.97" y="17.21" width="1.03" height="0.5" transform="translate(-9.11 15.62) rotate(-45)"/><rect class="cls-2" x="18.16" y="15.5" width="2.07" height="0.5" transform="translate(-7.41 16.32) rotate(-45)"/><rect class="cls-1" x="2.63" y="15.58" width="7.76" height="3.75" transform="translate(-12.33 7.86) rotate(-45)"/><rect class="cls-2" x="3.77" y="18.91" width="2.07" height="0.5" transform="translate(-14.04 7.15) rotate(-45)"/><rect class="cls-2" x="5.99" y="17.21" width="1.03" height="0.5" transform="translate(-12.33 7.86) rotate(-45)"/><rect class="cls-2" x="7.18" y="15.5" width="2.07" height="0.5" transform="translate(-10.62 8.56) rotate(-45)"/></svg>