<svg width="16" height="16" viewBox="-1 -1 14 14" fill="none" xmlns="http://www.w3.org/2000/svg">
<path fill-rule="evenodd" clip-rule="evenodd" d="M1 0C0.447715 0 0 0.447714 0 0.999999V4.33334C0 4.88562 0.447714 5.33334 0.999999 5.33334H4.33334C4.88562 5.33334 5.33334 4.88562 5.33334 4.33334V1C5.33334 0.447715 4.88562 0 4.33334 0H1ZM1 6.66666C0.447715 6.66666 0 7.11438 0 7.66666V11C0 11.5523 0.447714 12 0.999999 12H4.33334C4.88562 12 5.33334 11.5523 5.33334 11V7.66666C5.33334 7.11438 4.88562 6.66666 4.33334 6.66666H1ZM6.66666 0.999999C6.66666 0.447714 7.11438 0 7.66666 0H11C11.5523 0 12 0.447715 12 1V4.33334C12 4.88562 11.5523 5.33334 11 5.33334H7.66666C7.11438 5.33334 6.66666 4.88562 6.66666 4.33334V0.999999ZM7.66666 6.66666C7.11438 6.66666 6.66666 7.11438 6.66666 7.66666V11C6.66666 11.5523 7.11438 12 7.66666 12H11C11.5523 12 12 11.5523 12 11V7.66666C12 7.11438 11.5523 6.66666 11 6.66666H7.66666Z" fill="currentColor"/>
</svg>
