<svg width="16" height="16" viewBox="0 0 16 16" fill="none" xmlns="http://www.w3.org/2000/svg">
<path d="M1.54531 13.3111H13.0589C13.2492 13.3111 13.4049 13.5048 13.4049 13.7414V14.5697C13.4049 14.8064 13.2492 15 13.0589 15H1.55396C1.36365 15 1.20794 14.8064 1.20794 14.5697V13.7414C1.19929 13.5048 1.355 13.3111 1.54531 13.3111Z" fill="white" stroke="currentColor" stroke-width="0.5" stroke-miterlimit="10" stroke-linecap="round" stroke-linejoin="round"/>
<path d="M8.65317 11.0085C8.65317 10.1917 7.99101 9.52954 7.17421 9.52954V9.52954C6.3574 9.52954 5.69525 10.1917 5.69525 11.0085V13.2858H8.65317V11.0085Z" stroke="currentColor" stroke-width="0.5" stroke-miterlimit="10" stroke-linecap="round" stroke-linejoin="round"/>
<line x1="2.09998" y1="7.82263" x2="2.09998" y2="13.3315" stroke="currentColor" stroke-width="0.5"/>
<line x1="12.7046" y1="7.82263" x2="12.7046" y2="13.3315" stroke="currentColor" stroke-width="0.5"/>
<path d="M1.23811 6.58728V5.91189H3.39202L3.39202 6.58728L3.39203 6.58802C3.40021 7.14438 2.91631 7.60811 2.31939 7.60811C1.72265 7.60811 1.23811 7.14438 1.23811 6.58728ZM3.80291 6.58728V5.91189H5.95682L5.95681 6.58728L5.95682 6.58802C5.96501 7.14438 5.48111 7.60811 4.88418 7.60811C4.28745 7.60811 3.80291 7.14438 3.80291 6.58728ZM8.92386 6.58728V5.91189H11.0778L11.0778 6.58728L11.0778 6.58802C11.086 7.14462 10.6104 7.60811 10.0051 7.60811C9.4084 7.60811 8.92386 7.14438 8.92386 6.58728ZM13.6426 6.58728V6.63728H13.6499C13.622 7.17186 13.1487 7.60811 12.5699 7.60811C11.9732 7.60811 11.4887 7.14438 11.4887 6.58728V5.91189H13.6426V6.58728ZM14.0425 5.63856L13.3194 2.42796V1.55268C13.3194 1.22282 13.0466 0.95 12.7167 0.95H2.17258C1.84272 0.95 1.5699 1.22282 1.5699 1.55268V2.42803L0.85566 5.63779C0.846996 5.65531 0.835864 5.68027 0.835864 5.71508V6.58728C0.835864 7.36858 1.50836 8.00172 2.31939 8.00172C2.86568 8.00172 3.34159 7.71669 3.59706 7.30179C3.85259 7.7242 4.3292 8.00172 4.87555 8.00172C5.42184 8.00172 5.89775 7.71669 6.15322 7.30178C6.40875 7.7242 6.88537 8.00172 7.43171 8.00172C7.978 8.00172 8.45391 7.71669 8.70938 7.30179C8.96491 7.7242 9.44152 8.00172 9.98787 8.00172C10.5342 8.00172 11.0101 7.71669 11.2655 7.30178C11.5211 7.7242 11.9977 8.00172 12.544 8.00172C13.3639 8.00172 14.0275 7.36839 14.0275 6.58728V5.73395C14.0371 5.72166 14.0445 5.70796 14.0479 5.69246C14.0527 5.67117 14.0485 5.65283 14.0425 5.63856ZM6.43549 2.65624H8.45382L8.52892 5.51827H6.3604L6.43549 2.65624ZM8.92257 5.50964L8.84747 2.6476H10.8485L11.0822 5.50964H8.92257ZM6.05048 2.65624L5.97539 5.51827H3.80716L4.04079 2.65624H6.05048ZM13.6128 5.50964H11.4675L11.2338 2.6476H12.9703L13.6128 5.50964ZM2.17258 1.34361H12.7167C12.8359 1.34361 12.9258 1.43349 12.9258 1.55268V2.26262H1.96351V1.55268C1.96351 1.43457 2.06093 1.34361 2.17258 1.34361ZM1.27649 5.51827L1.91899 2.65624H3.64685L3.41321 5.51827H1.27649ZM7.44898 7.60811C6.85224 7.60811 6.3677 7.14438 6.3677 6.58728V5.91189H8.52162V6.58728C8.52162 7.14487 8.0452 7.60811 7.44898 7.60811Z" fill="currentColor" stroke="currentColor" stroke-width="0.1"/>
</svg>
