<svg xmlns="http://www.w3.org/2000/svg" width="16" height="16" viewBox="0 0 16 16" class="close-icon">
  <g fill="none" fill-rule="evenodd" transform="translate(-4 -4)">
    <rect width="24" height="24"/>
    <path fill="#5C5C6E" d="M4,12 C4,7.581722 7.581722,4 12,4 C16.418278,4 20,7.581722 20,12 C20,16.418278 16.418278,20 12,20 C7.581722,20 4,16.418278 4,12 Z M15.79284,15.8319127 L15.8319127,15.79284 C16.0550694,15.5696832 16.0550694,15.2078747 15.8319127,14.9847179 L12.8471947,12 L15.8319127,9.01528207 C16.0550694,8.79212533 16.0550694,8.43031677 15.8319127,8.20716003 L15.79284,8.16808733 C15.5696832,7.94493059 15.2078747,7.94493059 14.9847179,8.16808733 L12,11.1528053 L9.0152821,8.16808733 C8.7921253,7.94493059 8.4303168,7.94493059 8.20716,8.16808733 L8.1680873,8.20716003 C7.9449306,8.43031677 7.9449306,8.79212533 8.1680873,9.01528207 L11.1528053,12 L8.1680873,14.9847179 C7.9449306,15.2078747 7.9449306,15.5696832 8.1680873,15.79284 L8.20716,15.8319127 C8.4303168,16.0550694 8.7921253,16.0550694 9.0152821,15.8319127 L12,12.8471947 L14.9847179,15.8319127 C15.2078747,16.0550694 15.5696832,16.0550694 15.79284,15.8319127 Z"/>
  </g>
</svg>
