<svg xmlns="http://www.w3.org/2000/svg" width="8" height="14" viewBox="0 0 8 14">
  <g fill="none" fill-rule="evenodd" transform="translate(-8 -5)">
    <rect width="24" height="24"/>
    <path class="main" fill="#030104" d="M8.99703014,14 C8.4463856,14 8.2749362,14.3436702 8.625,14.78125 L11.375,18.21875 C11.720178,18.6502225 12.2749362,18.6563298 12.625,18.21875 L15.375,14.78125 C15.720178,14.3497775 15.5469637,14 15.0029699,14 L8.99703014,14 Z"/>
    <path class="main" fill="#030104" d="M8.99703014,5.4553514 C8.4463856,5.4553514 8.2749362,5.79902165 8.625,6.2366014 L11.375,9.6741014 C11.720178,10.1055739 12.2749362,10.1116811 12.625,9.6741014 L15.375,6.2366014 C15.720178,5.80512894 15.5469637,5.4553514 15.0029699,5.4553514 L8.99703014,5.4553514 Z" transform="matrix(1 0 0 -1 0 15.455)"/>
  </g>
</svg>
