<svg xmlns="http://www.w3.org/2000/svg" width="56" height="56" viewBox="0 0 56 56"><g fill="none" fill-rule="evenodd" opacity=".24" transform="matrix(0 1 1 0 -20 -20)"><rect width="96" height="96"/><path fill="#5C5C6E" fill-rule="nonzero" d="M74.6294864,68.0113778 L62.4637732,55.8458883 C62.3991179,55.781233 62.3232766,55.7360414 62.2557129,55.6758605 C64.6495254,52.0446483 66.0466618,47.6979769 66.0466618,43.0235546 C66.0466618,30.3079357 55.7387261,20 43.0233309,20 C30.3079357,20 20,30.3079357 20,43.0233309 C20,55.7385023 30.307712,66.0466618 43.0231072,66.0466618 C47.6977532,66.0466618 52.0442008,64.6495254 55.6754131,62.2557129 C55.735594,62.3230528 55.7805619,62.3988942 55.8452172,62.4635495 L68.0111541,74.6294864 C69.8387293,76.4568379 72.8016875,76.4568379 74.6294864,74.6294864 C76.4568379,72.8019112 76.4568379,69.838953 74.6294864,68.0113778 Z M43.0233309,58.0651986 C34.7156828,58.0651986 27.9812394,51.3307552 27.9812394,43.0233309 C27.9812394,34.7156828 34.7159065,27.9812394 43.0233309,27.9812394 C51.3305315,27.9812394 58.0651986,34.7159065 58.0651986,43.0233309 C58.0651986,51.3307552 51.3305315,58.0651986 43.0233309,58.0651986 Z"/></g></svg>