<?xml version="1.0" encoding="UTF-8"?>
<svg width="17px" height="17px" viewBox="0 0 17 17" version="1.1" xmlns="http://www.w3.org/2000/svg" xmlns:xlink="http://www.w3.org/1999/xlink">
    <!-- Generator: Sketch 56.3 (81716) - https://sketch.com -->
    <title>Group</title>
    <desc>Created with Sketch.</desc>
    <g id="Page-1" stroke="none" stroke-width="1" fill="none" fill-rule="evenodd">
        <g id="Artboard" fill="#000000" fill-rule="nonzero">
            <g id="Group">
                <path d="M0.434273545,13.1427539 L0.434273545,16.6098545 L3.90137407,16.6098545 L13.9378503,6.48217198 L10.4707497,3.01507145 L0.434273545,13.1427539 Z M16.5838239,3.83619843 C16.9488291,3.47128309 16.9488291,2.9238651 16.5838239,2.55885981 L14.4853582,0.460304256 C14.1203529,0.0952989624 13.5729349,0.0952989624 13.2079296,0.460304256 L11.5655857,2.10264817 L14.9691836,5.50615608 L16.5838239,3.83619843 Z" id="Fill-1"></path>
                <path d="M3.25104762,0.340269841 C3.11162963,0.340269841 2.97221164,0.393338624 2.86598413,0.499566136 L0.499476191,2.86607408 C0.287201059,3.0783492 0.287201059,3.42374603 0.499476191,3.63602117 L13.3351958,16.4716507 C13.5474709,16.6840158 13.8928677,16.6840158 14.1051429,16.4716507 L16.4717408,14.1051428 L16.59209,14.225582 L16.4717408,14.1051428 C16.6840159,13.8928677 16.6840159,13.5474708 16.4717408,13.3351957 L3.63611111,0.499566136 C3.52997355,0.393338624 3.39046561,0.340269841 3.25104762,0.340269841 M13.7201694,16.9712169 C13.4935926,16.9712169 13.266926,16.8849576 13.0944075,16.7124391 L0.258777778,3.87680952 C-0.0862592592,3.53177249 -0.0862592592,2.97032275 0.258777778,2.62528572 L2.62528572,0.258777777 C2.97032275,-0.0862592591 3.53177249,-0.0862592591 3.87680953,0.258777777 L16.7124392,13.0944074 C17.0574762,13.4394444 17.0574762,14.0008942 16.7124392,14.3459312 L14.3459313,16.7124391 C14.1734127,16.8849576 13.9467461,16.9712169 13.7201694,16.9712169" id="Fill-3"></path>
                <path d="M3.3641381,3.28068521 C3.32024391,3.28068521 3.27643968,3.26395504 3.24297936,3.23049473 C3.17605873,3.16357409 3.17605873,3.0550979 3.24297936,2.98826721 L4.66594233,1.56530426 C4.73286296,1.49838362 4.84133916,1.49838362 4.90825979,1.56530426 C4.97518042,1.63213494 4.97518042,1.74061113 4.90825979,1.80753177 L3.48529682,3.23049473 C3.45183651,3.26395504 3.40794233,3.28068521 3.3641381,3.28068521" id="Fill-6"></path>
                <path d="M5.05517038,3.86546721 C5.01127618,3.86546721 4.96747196,3.84873705 4.93401164,3.81527674 C4.867091,3.74835611 4.867091,3.63987992 4.93401164,3.57304923 L5.80388993,2.70317092 C5.87081058,2.63616034 5.97919683,2.63625029 6.04620743,2.70317092 C6.11303808,2.77009156 6.11303808,2.87856775 6.04620743,2.94539844 L5.17632908,3.81527674 C5.14286878,3.84873705 5.09897458,3.86546721 5.05517038,3.86546721" id="Fill-8"></path>
                <path d="M6.19308203,5.00337888 C6.14918783,5.00337888 6.10538358,4.98664868 6.07192328,4.95318838 C6.00500263,4.88626774 6.00500263,4.77779156 6.07192328,4.71096086 L6.94180158,3.84108256 C7.00872223,3.77407198 7.11710848,3.77407198 7.18411903,3.84108256 C7.25094973,3.90791325 7.25094973,4.01638944 7.18411903,4.08331008 L6.31424073,4.95318838 C6.28078043,4.98664868 6.23697618,5.00337888 6.19308203,5.00337888" id="Fill-10"></path>
            </g>
        </g>
    </g>
</svg>