<?xml version="1.0" encoding="utf-8"?>
<!-- Generator: Adobe Illustrator 23.0.3, SVG Export Plug-In . SVG Version: 6.00 Build 0)  -->
<svg version="1.1" id="Layer_1" xmlns="http://www.w3.org/2000/svg" xmlns:xlink="http://www.w3.org/1999/xlink" x="0px" y="0px"
	 viewBox="0 0 24 24" style="enable-background:new 0 0 24 24;" xml:space="preserve">
<style type="text/css">
	.st0{fill:none;}
	.st1{fill:#211915;}
</style>
<rect x="2" y="11.2" class="st0" width="3.8" height="7.2"/>
<rect x="3.6" y="16.1" class="st1" width="0.5" height="1.9"/>
<rect x="3.6" y="14.4" class="st1" width="0.5" height="1"/>
<rect x="3.6" y="11.6" class="st1" width="0.5" height="1.9"/>
<rect x="5.8" y="7.5" class="st0" width="7.2" height="3.8"/>
<rect x="6.2" y="9.1" class="st1" width="1.9" height="0.5"/>
<rect x="8.9" y="9.1" class="st1" width="1" height="0.5"/>
<rect x="10.6" y="9.1" class="st1" width="1.9" height="0.5"/>
<rect x="13" y="11.2" class="st0" width="3.8" height="7.2"/>
<rect x="14.6" y="11.6" class="st1" width="0.5" height="1.9"/>
<rect x="14.6" y="14.4" class="st1" width="0.5" height="1"/>
<rect x="14.6" y="16.1" class="st1" width="0.5" height="1.9"/>
<rect x="5.8" y="18.5" class="st0" width="7.2" height="3.8"/>
<rect x="10.6" y="20.1" class="st1" width="1.9" height="0.5"/>
<rect x="8.9" y="20.1" class="st1" width="1" height="0.5"/>
<rect x="6.2" y="20.1" class="st1" width="1.9" height="0.5"/>
<polygon class="st1" points="5.4,9.6 5.4,9.1 3.6,9.1 3.6,10.9 4.1,10.9 4.1,9.6 "/>
<polygon class="st1" points="14.6,10.9 15.1,10.9 15.1,9.1 13.3,9.1 13.3,9.6 14.6,9.6 "/>
<polygon class="st1" points="13.3,20.1 13.3,20.6 15.1,20.6 15.1,18.8 14.6,18.8 14.6,20.1 "/>
<polygon class="st1" points="4.1,18.8 3.6,18.8 3.6,20.6 5.4,20.6 5.4,20.1 4.1,20.1 "/>
<rect x="7.5" y="5.8" class="st0" width="3.8" height="7.2"/>
<rect x="9.1" y="10.6" class="st1" width="0.5" height="1.9"/>
<rect x="9.1" y="8.9" class="st1" width="0.5" height="1"/>
<rect x="9.1" y="6.2" class="st1" width="0.5" height="1.9"/>
<rect x="11.2" y="2" class="st0" width="7.2" height="3.8"/>
<rect x="11.6" y="3.6" class="st1" width="1.9" height="0.5"/>
<rect x="14.4" y="3.6" class="st1" width="1" height="0.5"/>
<rect x="16.1" y="3.6" class="st1" width="1.9" height="0.5"/>
<rect x="18.5" y="5.8" class="st0" width="3.8" height="7.2"/>
<rect x="20.1" y="6.2" class="st1" width="0.5" height="1.9"/>
<rect x="20.1" y="8.9" class="st1" width="0.5" height="1"/>
<rect x="20.1" y="10.6" class="st1" width="0.5" height="1.9"/>
<rect x="11.2" y="13" class="st0" width="7.2" height="3.8"/>
<rect x="16.1" y="14.6" class="st1" width="1.9" height="0.5"/>
<rect x="14.4" y="14.6" class="st1" width="1" height="0.5"/>
<rect x="11.6" y="14.6" class="st1" width="1.9" height="0.5"/>
<polygon class="st1" points="10.9,4.1 10.9,3.6 9.1,3.6 9.1,5.4 9.6,5.4 9.6,4.1 "/>
<polygon class="st1" points="20.1,5.4 20.6,5.4 20.6,3.6 18.8,3.6 18.8,4.1 20.1,4.1 "/>
<polygon class="st1" points="18.8,14.6 18.8,15.1 20.6,15.1 20.6,13.3 20.1,13.3 20.1,14.6 "/>
<polygon class="st1" points="9.6,13.3 9.1,13.3 9.1,15.1 10.9,15.1 10.9,14.6 9.6,14.6 "/>
<rect x="2.7" y="4.7" transform="matrix(0.7071 -0.7071 0.7071 0.7071 -2.7411 6.6128)" class="st0" width="7.8" height="3.8"/>
<rect x="3.9" y="8.1" transform="matrix(0.7071 -0.7071 0.7071 0.7071 -4.4449 5.9161)" class="st1" width="2.1" height="0.5"/>
<rect x="6.1" y="6.4" transform="matrix(0.7071 -0.7071 0.7071 0.7071 -2.7461 6.6149)" class="st1" width="1" height="0.5"/>
<rect x="7.3" y="4.7" transform="matrix(0.7071 -0.7071 0.7071 0.7071 -1.0403 7.3307)" class="st1" width="2.1" height="0.5"/>
<rect x="13.7" y="4.7" transform="matrix(0.7071 -0.7071 0.7071 0.7071 0.4789 14.3785)" class="st0" width="7.8" height="3.8"/>
<rect x="14.9" y="8.1" transform="matrix(0.7071 -0.7071 0.7071 0.7071 -1.2349 13.6776)" class="st1" width="2.1" height="0.5"/>
<rect x="17.1" y="6.4" transform="matrix(0.7071 -0.7071 0.7071 0.7071 0.4739 14.3806)" class="st1" width="1" height="0.5"/>
<rect x="18.3" y="4.7" transform="matrix(0.7071 -0.7071 0.7071 0.7071 2.1768 15.0894)" class="st1" width="2.1" height="0.5"/>
<rect x="13.7" y="15.7" transform="matrix(0.7071 -0.7071 0.7071 0.7071 -7.2868 17.5985)" class="st0" width="7.8" height="3.8"/>
<rect x="14.9" y="19" transform="matrix(0.7071 -0.7071 0.7071 0.7071 -8.9906 16.8876)" class="st1" width="2.1" height="0.5"/>
<rect x="17.1" y="17.4" transform="matrix(0.7071 -0.7071 0.7071 0.7071 -7.2918 17.6006)" class="st1" width="1" height="0.5"/>
<rect x="18.3" y="15.6" transform="matrix(0.7071 -0.7071 0.7071 0.7071 -5.5789 18.2994)" class="st1" width="2.1" height="0.5"/>
<rect x="2.7" y="15.7" transform="matrix(0.7071 -0.7071 0.7071 0.7071 -10.5068 9.8328)" class="st0" width="7.8" height="3.8"/>
<rect x="3.9" y="19.1" transform="matrix(0.7071 -0.7071 0.7071 0.7071 -12.2106 9.1219)" class="st1" width="2.1" height="0.5"/>
<rect x="6.1" y="17.4" transform="matrix(0.7071 -0.7071 0.7071 0.7071 -10.5118 9.8349)" class="st1" width="1" height="0.5"/>
<rect x="7.3" y="15.6" transform="matrix(0.7071 -0.7071 0.7071 0.7071 -8.796 10.5407)" class="st1" width="2.1" height="0.5"/>
</svg>
