<?xml version="1.0" encoding="UTF-8"?>
<svg width="17px" height="17px" viewBox="0 0 17 17" version="1.1" xmlns="http://www.w3.org/2000/svg" xmlns:xlink="http://www.w3.org/1999/xlink">
    <!-- Generator: Sketch 56.3 (81716) - https://sketch.com -->
    <title>design-experience</title>
    <desc>Created with Sketch.</desc>
    <defs>
        <polygon id="path-1" points="0 0.0287830688 16.971181 0.0287830688 16.971181 17 0 17"></polygon>
    </defs>
    <g id="Atlas" stroke="none" stroke-width="1" fill="none" fill-rule="evenodd">
        <g id="x220%AtlasAssetEditor" transform="translate(-589.000000, -343.000000)">
            <g id="design-experience" transform="translate(589.000000, 343.000000)">
                <path d="M0.434237566,13.232701 L0.434237566,16.6998016 L3.90133809,16.6998016 L13.9378143,6.57211905 L10.4707137,3.10501852 L0.434237566,13.232701 Z M16.5837879,3.9261455 C16.9487931,3.56123016 16.9487931,3.01381217 16.5837879,2.64880688 L14.4853222,0.550251325 C14.1203169,0.185246031 13.5728989,0.185246031 13.2078936,0.550251325 L11.5655497,2.19259524 L14.9691476,5.59610315 L16.5837879,3.9261455 Z" id="Fill-1" fill="#000000" fill-rule="nonzero"></path>
                <g id="Group-5" transform="translate(0.000000, 0.061164)">
                    <g id="Fill-3-Clipped">
                        <mask id="mask-2" fill="white">
                            <use xlink:href="#path-1"></use>
                        </mask>
                        <g id="path-1"></g>
                        <path d="M3.25101164,0.36905291 C3.11159365,0.36905291 2.97217566,0.422121693 2.86594815,0.528349205 L0.499440212,2.89485715 C0.28716508,3.10713227 0.28716508,3.4525291 0.499440212,3.66480424 L13.3351598,16.5004338 C13.5474349,16.7127989 13.8928317,16.7127989 14.1051069,16.5004338 L16.4717048,14.1339259 L16.592054,14.2543651 L16.4717048,14.1339259 C16.6839799,13.9216508 16.6839799,13.5762539 16.4717048,13.3639788 L3.63607513,0.528349205 C3.52993757,0.422121693 3.39042963,0.36905291 3.25101164,0.36905291 M13.7201334,17 C13.4935566,17 13.26689,16.9137407 13.0943715,16.7412222 L0.258741799,3.90559259 C-0.086295238,3.56055556 -0.086295238,2.99910582 0.258741799,2.65406879 L2.62524974,0.287560846 C2.97028677,-0.0574761905 3.53173651,-0.0574761905 3.87677355,0.287560846 L16.7124032,13.1231905 C17.0574402,13.4682275 17.0574402,14.0296773 16.7124032,14.3747143 L14.3458953,16.7412222 C14.1733767,16.9137407 13.9467101,17 13.7201334,17" id="Fill-3" fill="#000000" fill-rule="nonzero" mask="url(#mask-2)"></path>
                    </g>
                </g>
                <path d="M3.36410212,3.37063228 C3.32020793,3.37063228 3.2764037,3.35390211 3.24294338,3.3204418 C3.17602275,3.25352116 3.17602275,3.14504497 3.24294338,3.07821428 L4.66590635,1.65525133 C4.73282698,1.58833069 4.84130318,1.58833069 4.90822381,1.65525133 C4.97514444,1.72208201 4.97514444,1.8305582 4.90822381,1.89747884 L3.48526084,3.3204418 C3.45180053,3.35390211 3.40790635,3.37063228 3.36410212,3.37063228" id="Fill-6" fill="#000000" fill-rule="nonzero"></path>
                <path d="M5.0551344,3.95541428 C5.0112402,3.95541428 4.96743598,3.93868412 4.93397566,3.90522381 C4.86705502,3.83830318 4.86705502,3.72982699 4.93397566,3.6629963 L5.80385395,2.79311799 C5.8707746,2.72610741 5.97916085,2.72619736 6.04617145,2.79311799 C6.1130021,2.86003863 6.1130021,2.96851482 6.04617145,3.03534551 L5.1762931,3.90522381 C5.1428328,3.93868412 5.0989386,3.95541428 5.0551344,3.95541428" id="Fill-8" fill="#000000" fill-rule="nonzero"></path>
                <path d="M6.19304605,5.09332595 C6.14915185,5.09332595 6.1053476,5.07659575 6.0718873,5.04313545 C6.00496665,4.97621481 6.00496665,4.86773863 6.0718873,4.80090793 L6.9417656,3.93102963 C7.00868625,3.86401905 7.1170725,3.86401905 7.18408305,3.93102963 C7.25091375,3.99786032 7.25091375,4.10633651 7.18408305,4.17325715 L6.31420475,5.04313545 C6.28074445,5.07659575 6.2369402,5.09332595 6.19304605,5.09332595" id="Fill-10" fill="#000000" fill-rule="nonzero"></path>
            </g>
        </g>
    </g>
</svg>