<svg width="36" height="36" xmlns="http://www.w3.org/2000/svg"><g fill="none" fill-rule="evenodd"><path d="M33.094 17.977c.97 0 1.797.638 2.066 1.523.054-.584.09-1.15.09-1.753C35.25 8.363 27.523.75 18 .75S.75 8.363.75 17.747v.23h32.344z" fill="#D8D1C6" fill-rule="nonzero"/><circle fill="#FF7507" fill-rule="nonzero" cx="10.875" cy="8.625" r="3.375"/><circle fill="#FF7507" fill-rule="nonzero" cx="22.5" cy="10.5" r="5.25"/><path d="M14.554 18.643l1.025.069 1.72-2.164.935.537 1.796.663 1.276-.663 4.08-4.335 1.419 1.899.682-.555h.899l2.264 3.152 1.617-.268 2.83 3.204c.101.01.153.017.153.02-.837 9.21-7.727 15.048-17.25 15.048S.75 27.547.75 18.053c0-.095.875-.106 2.345-.059L5.548 13.7h2.839l1.406 4.638c.626.038 1.27.078 1.928.12l1.697-.44 1.136.626z" fill="#C2B5AE" fill-rule="nonzero"/><path d="M18.007 35.25c-7.178 0-13.316-4.968-15.757-11.232.488 0 .994.018 1.519.018.253.071.542.107.85.107.253 0 .862-.09 1.079-.143.108 0 .235 0 .343.018-.036.107-.036.143-.036.179 0 .805.557 1.44 1.732 1.44 1.157 0 1.763-.51 1.817-1.28.181.018.697-.018.877 0 4.882.52 5.144 1.427 5.144 1.463.018.071-.078.85-1.055 1.511-2.097 1.432-2.326 1.69-2.127 2.586.235 1.074 1.429 1.045 3.455 1.646.546.162 1.284.251 1.989.394.777.18 1.59.34 2.368.483 1.447.287 2.911.573 4.068.931-.193.669-4.17 1.879-6.266 1.879z" fill="#D8D1C6" fill-rule="nonzero"/><path d="M7.875 20.25S6.75 24.03 6.75 24.102c0 .36.5.648 1.125.648S9 24.462 9 24.102L7.875 20.25zM4.875 18.75S3.75 22.527 3.75 22.6c0 .36.507.65 1.125.65S6 22.96 6 22.6c0-.073-1.125-3.85-1.125-3.85z" fill="#FF7507" fill-rule="nonzero"/><path d="M28.5 19.153c0 1.463-6.75 1.463-6.75 0 0-1.462 1.508-2.653 3.366-2.653 1.859 0 3.384 1.173 3.384 2.653zM31.5 22.903c0 1.463-6.75 1.463-6.75 0 0-1.462 1.508-2.653 3.366-2.653 1.876-.018 3.384 1.173 3.384 2.653zM24.75 27.403c0 1.463-6.75 1.463-6.75 0 0-1.462 1.508-2.653 3.366-2.653 1.859 0 3.384 1.191 3.384 2.653z" fill="#E1A57A" fill-rule="nonzero"/><circle cx="18" cy="18" r="18"/><path d="M18 0C8.082 0 0 8.082 0 18s8.082 18 18 18 18-8.082 18-18S27.918 0 18 0zm0 34.56c-7.038 0-13.068-4.41-15.462-10.62.468 0 .972.018 1.476.018.252.072.522.108.828.108.234 0 .468-.018.666-.072.108 0 .216 0 .342.018-.036.108-.036.144-.036.18 0 .792.846 1.368 2.016 1.368 1.134 0 1.962-.54 1.998-1.296l.558.054c4.788.522 5.112 1.386 5.112 1.422.018.072-.09.45-1.062 1.098-2.034 1.404-2.736 2.25-2.556 3.132.216 1.062 1.602 1.332 3.708 1.728.594.108 1.26.234 1.944.396.756.162 1.566.324 2.34.486 1.404.288 2.844.576 3.996.918A16.641 16.641 0 0 1 18 34.56zM4.392 22.518c.108-.324.27-.846.468-1.404.198.576.378 1.098.468 1.422-.324 0-.63-.018-.936-.018zm2.97 1.53l.486-1.458.486 1.458a1.631 1.631 0 0 1-.486.072c-.198 0-.378-.036-.486-.072zm18.342 8.604c-1.35-.666-3.402-1.062-5.562-1.494-.756-.144-1.548-.306-2.304-.468a38.942 38.942 0 0 0-1.998-.396c-.972-.18-2.142-.414-2.52-.63.126-.198.522-.666 1.926-1.62.504-.342 2.034-1.386 1.62-2.718-.378-1.242-2.34-1.998-6.336-2.43-.36-.036-.738-.072-1.134-.108-.198-.594-.486-1.44-.9-2.664l-.684-1.998-.684 1.998c-.234.666-.414 1.206-.576 1.674-.18-.576-.504-1.512-1.062-3.132l-.63-2.034-.684 1.998c-.936 2.736-1.206 3.546-1.278 3.852H2.07a17.621 17.621 0 0 1-.576-3.258l1.656-.054 2.736-4.788h1.89l1.638 5.382 3.852-.99.882.486-1.872 2.358 1.134.9 3.996-5.058.468.27 2.16.792.936-.486c-.18.378-.288.792-.288 1.224 0 .432.27 1.35 2.322 1.692a1.353 1.353 0 0 1 1.134 1.332v2.34a4.133 4.133 0 0 0-.972-.504h.018c-.792-.252-1.53-.63-1.764-1.404-.18.63-.684.99-1.332 1.242-1.674.45-2.88 1.71-2.88 3.204 0 .54.414 1.818 4.176 1.818 3.78 0 4.176-1.278 4.176-1.818v-2.826c.252.09.54.162.882.216a1.353 1.353 0 0 1 1.134 1.332v1.62c0 .378.27.72.648.756a.73.73 0 0 0 .792-.72v-1.656c0-.666.486-1.224 1.134-1.332 2.052-.342 2.322-1.242 2.322-1.692 0-1.206-.792-2.25-1.962-2.844h.018c-.018 0-.036-.018-.072-.018-.198-.108-.432-.18-.648-.252-.324-.162-.612-.378-.81-.648-.09-1.278-1.044-2.358-2.412-2.88h-.018c-.09-.036-.18-.054-.27-.09-.684-.252-1.278-.63-1.476-1.296-.216.738-.846 1.116-1.656 1.368-.054.018-.126.036-.18.072l2.25-2.394 1.35 1.818 1.08-.864h.27l2.34 3.222 1.656-.288 2.43 2.754c-.792 5.256-4.086 9.72-8.658 12.132zm.774-19.602l-1.08-1.458-3.348 3.582a4.703 4.703 0 0 1 .504-9.378 4.701 4.701 0 0 1 4.698 4.698c0 .936-.288 1.818-.774 2.556zm1.098 6.102c-.252.18-1.206.468-2.736.468-1.53 0-2.484-.288-2.736-.468.072-1.008 1.296-1.836 2.736-1.836 1.44 0 2.664.828 2.736 1.836zm.738 1.764c1.44 0 2.664.828 2.736 1.836-.252.18-1.206.468-2.736.468-1.53 0-2.484-.288-2.736-.468.072-1.008 1.296-1.836 2.736-1.836zm-4.194 6.138c-.252.18-1.188.468-2.736.468-1.548 0-2.484-.288-2.736-.468.072-1.008 1.296-1.836 2.736-1.836 1.44 0 2.664.828 2.736 1.836zm8.37-10.872l-1.548.27-2.232-3.096h-.72a6.146 6.146 0 0 0-5.436-9c-3.384 0-6.156 2.736-6.156 6.12 0 2.808 1.908 5.184 4.482 5.922l-.09.09-.882.45-1.44-.522-1.422-.828-1.998 2.52-1.602-.882-3.078.792-1.548-5.076H5.04l-2.754 4.824-.846.018C1.548 8.748 8.946 1.44 18 1.44c9.126 0 16.56 7.434 16.56 16.56v.522l-2.07-2.34zm-21.186-3.33c2.286 0 4.176-1.872 4.176-4.176A4.179 4.179 0 0 0 11.304 4.5a4.179 4.179 0 0 0-4.176 4.176 4.179 4.179 0 0 0 4.176 4.176zm0-6.912a2.746 2.746 0 0 1 2.736 2.736 2.735 2.735 0 0 1-2.736 2.736 2.735 2.735 0 0 1-2.736-2.736 2.735 2.735 0 0 1 2.736-2.736z" fill="#0D0D17" fill-rule="nonzero"/></g></svg>