<?xml version="1.0" encoding="UTF-8"?>
<svg width="60px" height="60px" viewBox="0 0 60 60" version="1.1" xmlns="http://www.w3.org/2000/svg" xmlns:xlink="http://www.w3.org/1999/xlink">
    <!-- Generator: Sketch 50 (54983) - http://www.bohemiancoding.com/sketch -->
    <title>logo</title>
    <desc>Created with Sketch.</desc>
    <defs>
        <linearGradient x1="50%" y1="50%" x2="100%" y2="100%" id="linearGradient-1">
            <stop stop-color="#000000" stop-opacity="0" offset="0%"></stop>
            <stop stop-color="#000000" offset="100%"></stop>
        </linearGradient>
        <circle id="path-2" cx="24" cy="24" r="24"></circle>
        <filter x="-21.9%" y="-15.6%" width="143.8%" height="143.8%" filterUnits="objectBoundingBox" id="filter-3">
            <feOffset dx="0" dy="3" in="SourceAlpha" result="shadowOffsetOuter1"></feOffset>
            <feGaussianBlur stdDeviation="3" in="shadowOffsetOuter1" result="shadowBlurOuter1"></feGaussianBlur>
            <feColorMatrix values="0 0 0 0 0   0 0 0 0 0   0 0 0 0 0  0 0 0 0.32 0" type="matrix" in="shadowBlurOuter1"></feColorMatrix>
        </filter>
        <linearGradient x1="0%" y1="0%" x2="82.0493136%" y2="82.0493136%" id="linearGradient-4">
            <stop stop-color="#2C344E" offset="0%"></stop>
            <stop stop-color="#06080D" offset="100%"></stop>
        </linearGradient>
    </defs>
    <g id="Desktop" stroke="none" stroke-width="1" fill="none" fill-rule="evenodd">
        <g id="1.home" transform="translate(-18.000000, -21.000000)">
            <g id="header">
                <g id="top">
                    <g id="logo" transform="translate(24.000000, 24.000000)">
                        <path d="M44.125,23.9697828 C45.41875,23.9697828 46.5208333,24.8196412 46.8802083,26 C46.9520833,25.2209632 47,24.4655335 47,23.6628895 C47,11.1510859 36.6979167,1 24,1 C11.3020833,1 1,11.1510859 1,23.6628895 C1,23.7573182 1,23.8753541 1,23.9697828 L44.125,23.9697828 Z" id="Shape" fill="#D7D1C7" fill-rule="nonzero"></path>
                        <circle id="Oval" fill="#F57E33" fill-rule="nonzero" cx="14.5" cy="11.5" r="4.5"></circle>
                        <circle id="Oval" fill="#F57E33" fill-rule="nonzero" cx="30" cy="14" r="7"></circle>
                        <path d="M19.4046691,24.8570574 C19.8584264,24.8874289 20.3146714,24.91819 20.7726581,24.9492774 L23.0656244,22.0636943 L24.3114577,22.7802548 L26.707291,23.6640127 L28.4083326,22.7802548 L33.8468741,17 L35.7395824,19.5318471 L36.649999,18.7914013 L37.8479157,18.7914013 L40.8666656,22.9952229 L43.0229155,22.6369427 L46.7963693,26.909785 C46.9306394,26.9235875 47.0003372,26.9325823 46.9999988,26.9363057 C45.8838189,39.2150902 36.6979157,47 23.9999994,47 C11.3020831,47 1,36.7292994 1,24.0700637 C1,23.9445826 2.16601763,23.9292753 4.12676673,23.9926285 L7.39687483,18.2659236 L11.1822914,18.2659236 L13.0579678,24.4495502 C13.8914846,24.5003215 14.7499989,24.5539447 15.627336,24.6098956 L17.8906245,24.022293 L19.4046744,24.8570578 Z" id="Combined-Shape" fill="#C0B5AF" fill-rule="nonzero"></path>
                        <path d="M24.008791,47 C14.4385499,47 6.25436409,40.3758293 3,32.0238628 C3.65087282,32.0238628 4.32585204,32.0477255 5.02493766,32.0477255 C5.36242727,32.1431766 5.74812968,32.1909021 6.15793849,32.1909021 C6.4954281,32.1909021 7.30783525,32.0715883 7.59711206,32 C7.74175046,32 7.91049527,32 8.05513367,32.0238628 C8.00692087,32.1670393 8.00692087,32.2147649 8.00692087,32.2624904 C8.00692087,33.3363146 8.74885733,34.1819733 10.3157734,34.1819733 C11.858583,34.1819733 12.6666667,33.5021998 12.7389859,32.4761011 C12.9800499,32.4999638 13.6674813,32.4522383 13.9085453,32.4761011 C20.4172735,33.1681212 20.7664173,34.3782772 20.7664173,34.4260028 C20.7905237,34.5214538 20.6622714,35.5587538 19.3605258,36.441676 C16.5641833,38.3506969 15.8942652,39.3005733 16.1594356,40.4937114 C16.4728188,41.9254771 18.0647101,41.8877202 20.7664173,42.689363 C21.4940819,42.9052735 22.4779717,43.0234417 23.4181214,43.2143438 C24.4546966,43.4529714 25.5394846,43.6677362 26.5760599,43.8586383 C28.5045719,44.2404425 30.4571904,44.6222467 32,45.0995019 C31.742738,45.9912286 26.8051335,47 24.008791,47 Z" id="Shape" fill="#D7D1C7" fill-rule="nonzero"></path>
                        <path d="M10.5,27 C10.5,27 9,32.04 9,32.136 C9,32.616 9.66666667,33 10.5,33 C11.3333333,33 12,32.616 12,32.136 C11.9791667,32.064 10.5,27 10.5,27 Z" id="Shape" fill="#F47E33" fill-rule="nonzero"></path>
                        <path d="M6.5,25 C6.5,25 5,30.0361446 5,30.1325301 C5,30.6144578 5.67605634,31 6.5,31 C7.32394366,31 8,30.6144578 8,30.1325301 C8,30.0361446 6.5,25 6.5,25 Z" id="Shape" fill="#F47E33" fill-rule="nonzero"></path>
                        <path d="M38,25.5379061 C38,27.4873646 29,27.4873646 29,25.5379061 C29,23.5884477 31.0103896,22 33.4883117,22 C35.9662338,22 38,23.5643803 38,25.5379061 Z" id="Shape" fill="#D8A780" fill-rule="nonzero"></path>
                        <path d="M42,30.5379851 C42,32.4873383 33,32.4873383 33,30.5379851 C33,28.5886318 35.0103896,27.0002699 37.4883117,27.0002699 C39.9896104,26.9762038 42,28.5645657 42,30.5379851 Z" id="Shape" fill="#D8A780" fill-rule="nonzero"></path>
                        <path d="M33,36.5379061 C33,38.4873646 24,38.4873646 24,36.5379061 C24,34.5884477 26.0103896,33 28.4883117,33 C30.9662338,33 33,34.5884477 33,36.5379061 Z" id="Shape" fill="#D8A780" fill-rule="nonzero"></path>
                        <g id="Oval-3">
                            <use fill="black" fill-opacity="1" filter="url(#filter-3)" xlink:href="#path-2"></use>
                            <use fill="url(#linearGradient-1)" fill-rule="evenodd" style="mix-blend-mode: soft-light;" xlink:href="#path-2"></use>
                        </g>
                        <path d="M24,0 C10.776,0 0,10.776 0,24 C0,37.224 10.776,48 24,48 C37.224,48 48,37.224 48,24 C48,10.776 37.224,0 24,0 Z M24,46.08 C14.616,46.08 6.576,40.2 3.384,31.92 C4.008,31.92 4.68,31.944 5.352,31.944 C5.688,32.04 6.048,32.088 6.456,32.088 C6.768,32.088 7.08,32.064 7.344,31.992 C7.488,31.992 7.632,31.992 7.8,32.016 C7.752,32.16 7.752,32.208 7.752,32.256 C7.752,33.312 8.88,34.08 10.44,34.08 C11.952,34.08 13.056,33.36 13.104,32.352 C13.344,32.376 13.608,32.4 13.848,32.424 C20.232,33.12 20.664,34.272 20.664,34.32 C20.688,34.416 20.544,34.92 19.248,35.784 C16.536,37.656 15.6,38.784 15.84,39.96 C16.128,41.376 17.976,41.736 20.784,42.264 C21.576,42.408 22.464,42.576 23.376,42.792 C24.384,43.008 25.464,43.224 26.496,43.44 C28.368,43.824 30.288,44.208 31.824,44.664 C29.4,45.576 26.76,46.08 24,46.08 Z M5.856,30.024 C6,29.592 6.216,28.896 6.48,28.152 C6.744,28.92 6.984,29.616 7.104,30.048 C6.672,30.048 6.264,30.024 5.856,30.024 Z M9.816,32.064 C9.96,31.632 10.2,30.912 10.464,30.12 C10.728,30.912 10.968,31.632 11.112,32.064 C10.968,32.112 10.728,32.16 10.464,32.16 C10.2,32.16 9.96,32.112 9.816,32.064 Z M34.272,43.536 C32.472,42.648 29.736,42.12 26.856,41.544 C25.848,41.352 24.792,41.136 23.784,40.92 C22.848,40.704 21.936,40.536 21.12,40.392 C19.824,40.152 18.264,39.84 17.76,39.552 C17.928,39.288 18.456,38.664 20.328,37.392 C21,36.936 23.04,35.544 22.488,33.768 C21.984,32.112 19.368,31.104 14.04,30.528 C13.56,30.48 13.056,30.432 12.528,30.384 C12.264,29.592 11.88,28.464 11.328,26.832 L10.416,24.168 L9.504,26.832 C9.192,27.72 8.952,28.44 8.736,29.064 C8.496,28.296 8.064,27.048 7.32,24.888 L6.48,22.176 L5.568,24.84 C4.32,28.488 3.96,29.568 3.864,29.976 C3.48,29.976 3.12,29.976 2.76,29.976 C2.376,28.584 2.112,27.12 1.992,25.632 L4.2,25.56 L7.848,19.176 L10.368,19.176 L12.552,26.352 L17.688,25.032 L18.864,25.68 L16.368,28.824 L17.88,30.024 L23.208,23.28 L23.832,23.64 L26.712,24.696 L27.96,24.048 C27.72,24.552 27.576,25.104 27.576,25.68 C27.576,26.256 27.936,27.48 30.672,27.936 C31.536,28.08 32.184,28.824 32.184,29.712 L32.184,32.832 C31.8,32.568 31.368,32.328 30.888,32.16 C30.912,32.16 30.912,32.16 30.912,32.16 C29.856,31.824 28.872,31.32 28.56,30.288 C28.32,31.128 27.648,31.608 26.784,31.944 C24.552,32.544 22.944,34.224 22.944,36.216 C22.944,36.936 23.496,38.64 28.512,38.64 C33.552,38.64 34.08,36.936 34.08,36.216 L34.08,32.448 C34.416,32.568 34.8,32.664 35.256,32.736 C36.12,32.88 36.768,33.624 36.768,34.512 L36.768,36.672 C36.768,37.176 37.128,37.632 37.632,37.68 C38.208,37.728 38.688,37.272 38.688,36.72 L38.688,34.512 C38.688,33.624 39.336,32.88 40.2,32.736 C42.936,32.28 43.296,31.08 43.296,30.48 C43.296,28.872 42.24,27.48 40.68,26.688 C40.704,26.688 40.704,26.688 40.704,26.688 C40.68,26.688 40.656,26.664 40.608,26.664 C40.344,26.52 40.032,26.424 39.744,26.328 C39.312,26.112 38.928,25.824 38.664,25.464 C38.544,23.76 37.272,22.32 35.448,21.624 C35.448,21.624 35.448,21.624 35.448,21.624 C35.448,21.624 35.424,21.624 35.424,21.624 C35.304,21.576 35.184,21.552 35.064,21.504 C34.152,21.168 33.36,20.664 33.096,19.776 C32.808,20.76 31.968,21.264 30.888,21.6 C30.888,21.6 30.888,21.6 30.888,21.6 C30.816,21.624 30.72,21.648 30.648,21.696 L33.648,18.504 L35.448,20.928 L36.888,19.776 L37.248,19.776 L40.368,24.072 L42.576,23.688 L45.816,27.36 C44.76,34.368 40.368,40.32 34.272,43.536 Z M35.304,17.4 L33.864,15.456 L29.4,20.232 C26.256,19.896 23.808,17.232 23.808,13.992 C23.808,10.536 26.616,7.728 30.072,7.728 C33.528,7.728 36.336,10.536 36.336,13.992 C36.336,15.24 35.952,16.416 35.304,17.4 Z M36.768,25.536 C36.432,25.776 35.16,26.16 33.12,26.16 C33.12,26.16 33.12,26.16 33.12,26.16 C33.12,26.16 33.12,26.16 33.12,26.16 C31.08,26.16 29.808,25.776 29.472,25.536 C29.472,25.536 29.472,25.536 29.472,25.536 C29.568,24.192 31.2,23.088 33.12,23.088 C35.04,23.088 36.672,24.192 36.768,25.536 C36.768,25.536 36.768,25.536 36.768,25.536 Z M37.752,27.888 C39.672,27.888 41.304,28.992 41.4,30.336 C41.4,30.336 41.4,30.336 41.4,30.336 C41.064,30.576 39.792,30.96 37.752,30.96 C37.752,30.96 37.752,30.96 37.752,30.96 C37.752,30.96 37.752,30.96 37.752,30.96 C35.712,30.96 34.44,30.576 34.104,30.336 C34.104,30.336 34.104,30.336 34.104,30.336 C34.2,28.992 35.832,27.888 37.752,27.888 Z M32.16,36.072 C31.824,36.312 30.576,36.696 28.512,36.696 C26.448,36.696 25.2,36.312 24.864,36.072 C24.96,34.728 26.592,33.624 28.512,33.624 C30.432,33.624 32.064,34.728 32.16,36.072 Z M43.32,21.576 L41.256,21.936 L38.28,17.808 L37.32,17.808 C37.92,16.656 38.256,15.36 38.256,13.992 C38.256,9.48 34.584,5.808 30.072,5.808 C25.56,5.808 21.864,9.456 21.864,13.968 C21.864,17.712 24.408,20.88 27.84,21.864 L27.72,21.984 L26.544,22.584 L24.624,21.888 L22.728,20.784 L20.064,24.144 L17.928,22.968 L13.824,24.024 L11.76,17.256 L6.72,17.256 L3.048,23.688 L1.92,23.712 C2.064,11.664 11.928,1.92 24,1.92 C36.168,1.92 46.08,11.832 46.08,24 C46.08,24.24 46.08,24.456 46.08,24.696 L43.32,21.576 Z M15.072,17.136 C18.12,17.136 20.64,14.64 20.64,11.568 C20.64,8.496 18.144,6 15.072,6 C12,6 9.504,8.496 9.504,11.568 C9.504,14.64 12,17.136 15.072,17.136 Z M15.072,7.92 C17.064,7.92 18.72,9.552 18.72,11.568 C18.72,13.584 17.088,15.216 15.072,15.216 C13.056,15.216 11.424,13.584 11.424,11.568 C11.424,9.552 13.056,7.92 15.072,7.92 Z" id="Combined-Shape" fill="url(#linearGradient-4)" fill-rule="nonzero"></path>
                    </g>
                </g>
            </g>
        </g>
    </g>
</svg>