<svg version="1.1" id="Layer_1" xmlns="http://www.w3.org/2000/svg" xmlns:xlink="http://www.w3.org/1999/xlink" x="0px" y="0px"
	 viewBox="0 0 200 200" enable-background="new 0 0 200 200" xml:space="preserve">
<path fill="#D7D1C7" d="M184,101.3c5.4,0,10,3.6,11.5,8.6c0.3-3.3,0.5-6.5,0.5-9.9c0-53-43-96-96-96S4,47,4,100c0,0.4,0,0.9,0,1.3
	H184z"/>
<path fill="#BFB5AF" d="M3.6,100.2c0,53,43,96,96,96s96-31,96-84C195.6,111.8,3.6,96.9,3.6,100.2z"/>
<g>
	<circle fill="#F47E33" cx="62.8" cy="48.2" r="19.2"/>
	<path fill="#35312E" d="M62.8,71.4C50,71.4,39.6,61,39.6,48.2S50,25,62.8,25c12.8,0,23.2,10.4,23.2,23.2S75.5,71.4,62.8,71.4z
		 M62.8,33c-8.4,0-15.2,6.8-15.2,15.2s6.8,15.2,15.2,15.2s15.2-6.8,15.2-15.2S71.1,33,62.8,33z"/>
</g>
<circle fill="#F47E33" cx="125.2" cy="58.2" r="30.1"/>
<polyline fill="#BFB5AF" points="71.3,122.6 95.7,91.8 100.9,94.8 110.9,98.5 118,94.8 140.7,70.6 148.6,81.2 152.4,78.1 
	157.4,78.1 170,95.7 179,94.2 195.2,112.6 "/>
<polyline fill="#BFB5AF" points="87.3,107.3 74.1,100 54.9,105 46.1,75.9 30.3,75.9 15.1,102.6 4,103 "/>
<path fill="#F47E33" d="M43.6,112.9c0,0-7.2,21-7.2,21.4c0,2,3.2,3.6,7.2,3.6s7.2-1.6,7.2-3.6C50.7,134,43.6,112.9,43.6,112.9z"/>
<path fill="#F47E33" d="M27,104.8c0,0-7.1,20.9-7.1,21.3c0,2,3.2,3.6,7.1,3.6s7.1-1.6,7.1-3.6C34.1,125.7,27,104.8,27,104.8z"/>
<path fill="#D8A780" d="M157.3,107c0,8.1-38.5,8.1-38.5,0s8.6-14.7,19.2-14.7S157.3,98.8,157.3,107z"/>
<path fill="#D8A780" d="M176.5,127c0,8.1-38.5,8.1-38.5,0s8.6-14.7,19.2-14.7C167.9,112.2,176.5,118.8,176.5,127z"/>
<path fill="#D8A780" d="M138,150.8c0,8.1-38.5,8.1-38.5,0c0-8.1,8.6-14.7,19.2-14.7S138,142.7,138,150.8z"/>
<path fill="#D7D1C7" d="M101.1,192.1c-39.7,0-73.7-24.9-87.2-59.9c2.7,0,5.5,0.1,8.4,0.1c1.4,0.4,3,0.6,4.7,0.6
	c1.4,0,2.6-0.1,3.8-0.4c0.6,0,1.3,0,1.9,0.1c-0.2,0.6-0.2,0.8-0.2,1c0,4.5,4.8,7.7,11.3,7.7c6.4,0,10-4,10.3-8.3
	c1,0.1,3.1,1.1,4.1,1.2c27,2.9,28.8,7.8,28.8,8c0.1,0.4-0.6,2.5-6,6.2c-11.6,8-15.6,12.7-14.5,17.7c1.3,6,9.1,7.5,20.9,9.7
	c3.3,0.6,7.1,1.4,11,2.2c4.3,1,8.8,1.9,13.1,2.7c8,1.6,16.1,3.2,22.5,5.2C123.9,190,112.7,192.1,101.1,192.1z"/>
<path fill="#35312E" d="M100,0C44.9,0,0,44.9,0,100s44.9,100,100,100s100-44.9,100-100S155.1,0,100,0z M100,192
	c-39.1,0-72.6-24.5-85.9-59c2.6,0,5.4,0.1,8.2,0.1c1.4,0.4,2.9,0.6,4.6,0.6c1.3,0,2.6-0.1,3.7-0.4c0.6,0,1.2,0,1.9,0.1
	c-0.2,0.6-0.2,0.8-0.2,1c0,4.4,4.7,7.6,11.2,7.6c6.3,0,10.9-3,11.1-7.2c1,0.1,2.1,0.2,3.1,0.3c26.6,2.9,28.4,7.7,28.4,7.9
	c0.1,0.4-0.5,2.5-5.9,6.1C68.9,156.9,65,161.6,66,166.5c1.2,5.9,8.9,7.4,20.6,9.6c3.3,0.6,7,1.3,10.8,2.2c4.2,0.9,8.7,1.8,13,2.7
	c7.8,1.6,15.8,3.2,22.2,5.1C122.5,189.9,111.5,192,100,192z M24.4,125.1c0.6-1.8,1.5-4.7,2.6-7.8c1.1,3.2,2.1,6.1,2.6,7.9
	C27.8,125.2,26.1,125.1,24.4,125.1z M40.9,133.6c0.6-1.8,1.6-4.8,2.7-8.1c1.1,3.3,2.1,6.3,2.7,8.1c-0.6,0.2-1.6,0.4-2.7,0.4
	S41.5,133.8,40.9,133.6z M142.8,181.4c-7.5-3.7-18.9-5.9-30.9-8.3c-4.2-0.8-8.6-1.7-12.8-2.6c-3.9-0.9-7.7-1.6-11.1-2.2
	c-5.4-1-11.9-2.3-14-3.5c0.7-1.1,2.9-3.7,10.7-9c2.8-1.9,11.3-7.7,9-15.1c-2.1-6.9-13-11.1-35.2-13.5c-2-0.2-4.1-0.4-6.3-0.6
	c-1.1-3.3-2.7-8-5-14.8l-3.8-11.1l-3.8,11.1c-1.3,3.7-2.3,6.7-3.2,9.3c-1-3.2-2.8-8.4-5.9-17.4L27,92.4l-3.8,11.1
	c-5.2,15.2-6.7,19.7-7.1,21.4c-1.6,0-3.1,0-4.6,0c-1.6-5.8-2.7-11.9-3.2-18.1l9.2-0.3l15.2-26.6h10.5l9.1,29.9l21.4-5.5l4.9,2.7
	l-10.4,13.1l6.3,5L96.7,97l2.6,1.5l12,4.4l5.2-2.7c-1,2.1-1.6,4.4-1.6,6.8c0,2.4,1.5,7.5,12.9,9.4c3.6,0.6,6.3,3.7,6.3,7.4v13
	c-1.6-1.1-3.4-2.1-5.4-2.8c0.1,0,0.1,0,0.1,0c-4.4-1.4-8.5-3.5-9.8-7.8c-1,3.5-3.8,5.5-7.4,6.9c-9.3,2.5-16,9.5-16,17.8
	c0,3,2.3,10.1,23.2,10.1c21,0,23.2-7.1,23.2-10.1v-15.7c1.4,0.5,3,0.9,4.9,1.2c3.6,0.6,6.3,3.7,6.3,7.4v9c0,2.1,1.5,4,3.6,4.2
	c2.4,0.2,4.4-1.7,4.4-4v-9.2c0-3.7,2.7-6.8,6.3-7.4c11.4-1.9,12.9-6.9,12.9-9.4c0-6.7-4.4-12.5-10.9-15.8c0.1,0,0.1,0,0.1,0
	c-0.1,0-0.2-0.1-0.4-0.1c-1.1-0.6-2.4-1-3.6-1.4c-1.8-0.9-3.4-2.1-4.5-3.6c-0.5-7.1-5.8-13.1-13.4-16c0,0,0,0,0,0c0,0-0.1,0-0.1,0
	c-0.5-0.2-1-0.3-1.5-0.5c-3.8-1.4-7.1-3.5-8.2-7.2c-1.2,4.1-4.7,6.2-9.2,7.6c0,0,0,0,0,0c-0.3,0.1-0.7,0.2-1,0.4l12.5-13.3l7.5,10.1
	l6-4.8h1.5l13,17.9l9.2-1.6l13.5,15.3C186.5,143.2,168.2,168,142.8,181.4z M147.1,72.5l-6-8.1l-18.6,19.9
	c-13.1-1.4-23.3-12.5-23.3-26c0-14.4,11.7-26.1,26.1-26.1s26.1,11.7,26.1,26.1C151.4,63.5,149.8,68.4,147.1,72.5z M153.2,106.4
	c-1.4,1-6.7,2.6-15.2,2.6c0,0,0,0,0,0s0,0,0,0c-8.5,0-13.8-1.6-15.2-2.6c0,0,0,0,0,0c0.4-5.6,7.2-10.2,15.2-10.2
	S152.8,100.8,153.2,106.4C153.2,106.4,153.2,106.4,153.2,106.4z M157.3,116.2c8,0,14.8,4.6,15.2,10.2c0,0,0,0,0,0
	c-1.4,1-6.7,2.6-15.2,2.6c0,0,0,0,0,0s0,0,0,0c-8.5,0-13.8-1.6-15.2-2.6c0,0,0,0,0,0C142.5,120.8,149.3,116.2,157.3,116.2z
	 M134,150.3c-1.4,1-6.6,2.6-15.2,2.6c-8.6,0-13.8-1.6-15.2-2.6c0.4-5.6,7.2-10.2,15.2-10.2C126.8,140.1,133.6,144.7,134,150.3z
	 M180.5,89.9l-8.6,1.5l-12.4-17.2h-4c2.5-4.8,3.9-10.2,3.9-15.9c0-18.8-15.3-34.1-34.1-34.1S91.1,39.4,91.1,58.2
	c0,15.6,10.6,28.8,24.9,32.9l-0.5,0.5l-4.9,2.5l-8-2.9l-7.9-4.6l-11.1,14l-8.9-4.9l-17.1,4.4L49,71.9H28L12.7,98.7L8,98.8
	C8.6,48.6,49.7,8,100,8c50.7,0,92,41.3,92,92c0,1,0,1.9,0,2.9L180.5,89.9z"/>
</svg>